<?xml version="1.0" encoding="UTF-8"?>
<svg id="Layer_1" xmlns="http://www.w3.org/2000/svg" version="1.1" viewBox="0 0 595.276 841.89">
  <!-- Generator: Adobe Illustrator 29.0.0, SVG Export Plug-In . SVG Version: 2.1.0 Build 186)  -->
  <path d="M344.276,390.047h-2.361c-1.346,0-2.429,1.095-2.429,2.429,0,1.346,1.095,2.429,2.429,2.429h2.361c1.346,0,2.429-1.095,2.429-2.429,0-1.346-1.095-2.429-2.429-2.429Z"/>
  <path d="M377.728,384.026c-3.353-5.737-9.957-8.554-16.424-7.003l-21.739,5.247c-4.118.992-7.539,3.912-9.181,7.813-1.198,2.851-1.357,6.056-.468,9.01l7.094,23.484c-2.578.091-5.281-.696-7.322-2.144-2.623-1.87-4.813-4.733-6.535-8.509-4.471-9.82-4.152-22.115.89-33.727,4.118-9.489,11.246-18.614,21.807-27.909.662-.582.958-1.483.764-2.338-.182-.855-.821-1.563-1.665-1.825-26.609-8.235-57.039-7.493-90.424,2.201-29.7,8.611-58.09,23.393-83.136,36.451-1.106.582-1.608,1.905-1.129,3.08.468,1.163,1.745,1.779,2.954,1.426,11.052-3.273,46.215-3.045,50.767,6.376.513,1.084,1.745,1.62,2.886,1.277,6.227-1.87,12.398-3.114,17.371-3.49,6.547-.502,11.143.091,14.896,1.939,3.684,1.813,7.459,5.919,7.071,10.675-.08.992.445,1.928,1.334,2.372s1.962.297,2.703-.354c5.007-4.425,12.774-6.342,18.876-4.665,2.395.662,4.802,1.916,6.957,3.616.947.753,3.821,3.023,4.289,5.281.148.707.137,1.448-1.585,2.749-1.654,1.232-3.684,1.962-5.805,2.635l-.319.103c-4.996,1.62-10.162,3.285-15.203,5.098-6.182,2.224-12.694,5.076-19.355,8.463-12.626,6.398-24.476,14.28-35.242,23.393-6.09,5.167-10.082,11.348-11.508,17.884-1.859,8.463.81,17.268,6.798,22.435,3.399,2.931,7.858,4.824,13.276,5.623,3.342.502,6.695.741,10.174.741,1.061,0,2.144-.023,3.228-.068h26.312c1.015,0,1.916-.627,2.281-1.563.365-.947.103-2.007-.65-2.68-3.251-2.908-6.649-5.862-9.923-8.714-3.273-2.84-6.649-5.783-9.866-8.657-.707-.639-1.745-.798-2.623-.411s-1.437,1.266-1.437,2.224v7.459c-2.726.034-5.463-.08-7.984-.764-3.33-.901-5.897-2.783-7.049-5.178-1.209-2.532-.89-5.965.833-8.759,1.985-3.216,5.315-5.201,7.756-6.296,1.642-.73,3.753-1.494,6.102-2.201,3.057-.912,6.25-1.38,9.489-1.38h12.774c-.627,4.973.73,10.174,3.798,14.154l3.889,5.041c.456.593,1.163.947,1.928.947h13.664c.947,0,1.813-.547,2.213-1.414s.262-1.87-.354-2.6c-1.004-1.186-2.064-2.452-3.114-3.707-.65-.776-1.312-1.563-1.962-2.327,2.019-3.524,3.41-7.402,4.118-11.394h22.469c.023,3.798.73,7.596,2.087,11.132l2.829,7.311c.365.935,1.266,1.563,2.27,1.563h15.455c.878,0,1.688-.468,2.11-1.232.433-.764.433-1.688-.023-2.441-.833-1.426-2.829-4.483-5.691-6.786,2.407-3.479,3.935-7.528,4.505-11.702h3.285c8.223,0,15.797-3.764,20.781-10.334,4.859-6.398,6.41-14.474,4.266-22.127-2.27-8.098-7.049-14.987-10.219-18.933l15.694-2.007c.833-.103,1.563-.639,1.905-1.414l1.985-4.402c.308-.684.285-1.471-.057-2.133-.354-.662-.969-1.129-1.711-1.266l-14.907-2.76,16.173-4.676c.719-.205,1.3-.741,1.585-1.426.285-.696.228-1.483-.16-2.133l-1.962-3.365.045.012ZM350.891,393.812c-1.084.308-1.813,1.334-1.756,2.452.057,1.129.878,2.064,1.985,2.27l21.967,4.083-.148.331-18.876,2.418c-.912.114-1.688.753-1.996,1.631-.297.878-.08,1.848.57,2.498.091.091,8.965,9.147,12.113,20.37,1.734,6.182.479,12.694-3.456,17.884-4.049,5.338-10.208,8.406-16.892,8.406h-3.057c-.057-1.46-.228-2.908-.547-4.346,9.045-.924,16.23-8.086,16.96-17.154l.023-.274c.445-6.433-1.642-13.47-6.227-20.929-.696-1.152-2.201-1.494-3.353-.798-1.152.696-1.494,2.201-.798,3.353,4.038,6.57,5.897,12.637,5.52,18.032l-.023.228c-.559,7.037-6.41,12.523-13.595,12.774l-1.756.057c-.764.034-1.494.422-1.928,1.049-.433.639-.547,1.437-.297,2.167,2.498,7.208.901,15.591-4.094,21.363-.49.559-.696,1.3-.559,2.03.137.73.593,1.357,1.243,1.699,1.232.662,2.418,1.711,3.479,2.886h-9.01l-2.224-5.749c-1.414-3.684-1.996-7.699-1.677-11.622.057-.684-.171-1.346-.627-1.848s-1.106-.776-1.791-.776h-24.488c.057-1.46.034-2.931-.103-4.38h25.959c1.346,0,2.429-1.095,2.429-2.429,0-1.346-1.095-2.429-2.429-2.429h-28.468c-.057,0-.103.011-.171.023-.171,0-.331,0-.502.034-1.323.228-2.213,1.494-1.985,2.817,1.277,7.402-.331,15.261-4.414,21.568-.582.901-.502,2.076.182,2.886.912,1.095,1.882,2.224,2.84,3.376h-7.254l-3.148-4.083c-2.772-3.616-3.673-8.543-2.327-12.9.228-.741.103-1.54-.365-2.156-.456-.627-1.186-.992-1.962-.992h-15.774c-3.718,0-7.379.536-10.892,1.585-2.589.776-4.836,1.585-6.695,2.418-1.642.73-3.148,1.585-4.494,2.555,2.965-4.642,7.562-8.178,11.508-9.58,6.056-2.156,14.12-3.045,23.974-2.669,1.357.034,2.475-.992,2.521-2.338.046-1.346-.992-2.475-2.338-2.521-10.482-.411-19.15.582-25.788,2.943-8.759,3.114-19.652,14.268-17.553,27.202-.08,2.099.297,4.163,1.175,6.011,1.756,3.684,5.475,6.513,10.174,7.779,3.946,1.061,7.904.969,11.736.89,1.323-.034,2.372-1.106,2.372-2.429v-4.437c1.962,1.722,3.935,3.433,5.874,5.121,1.677,1.449,3.365,2.931,5.076,4.414h-20.039c-4.357.182-8.463-.023-12.535-.616-4.414-.65-8.155-2.201-10.801-4.483-4.585-3.946-6.684-11.075-5.224-17.701,1.517-6.923,6.227-12.101,9.911-15.215,10.47-8.874,22.013-16.538,34.296-22.765,6.49-3.285,12.82-6.056,18.808-8.223,4.95-1.791,10.082-3.444,15.044-5.053l.319-.103c2.418-.787,4.973-1.688,7.231-3.376,1.072-.81,4.346-3.262,3.422-7.642-.753-3.57-3.809-6.33-6.033-8.098-2.669-2.11-5.669-3.673-8.68-4.494-6.353-1.756-13.835-.513-19.788,3.08-1.334-4.904-5.281-8.794-9.341-10.778-5.942-2.92-12.797-2.783-17.416-2.418-4.836.365-10.687,1.494-16.629,3.171-6.33-8.018-26.381-9.809-41.207-9.056,21.671-11.132,45.394-22.572,69.859-29.677,30.737-8.919,58.796-10.06,83.489-3.422-9.341,8.782-15.842,17.53-19.812,26.666-5.577,12.865-5.897,26.598-.855,37.671,2.087,4.574,4.813,8.086,8.132,10.447,3.912,2.794,9.387,3.775,13.937,2.509.627-.171,1.163-.593,1.483-1.163.308-.57.388-1.243.194-1.882l-7.904-26.176c-.559-1.882-.468-3.912.297-5.725,1.038-2.486,3.216-4.334,5.828-4.961l21.739-5.247c4.368-1.049,8.816.844,11.086,4.722l.388.673-23.05,6.672.009-.101Z"/>
  <path d="M323.641,355.146c-.479-1.255-1.882-1.893-3.136-1.414-21.419,8.132-33.464,17.348-46.022,35.254-.764,1.095-.502,2.623.593,3.388.433.297.912.433,1.391.433.764,0,1.517-.365,1.996-1.026,11.919-16.994,23.37-25.765,43.762-33.499,1.255-.479,1.893-1.882,1.414-3.136h.002Z"/>
  <path d="M300.671,355.821c1.312-.285,2.156-1.574,1.87-2.886-.285-1.312-1.563-2.156-2.886-1.87l-1.916.411c-23.974,5.098-41.289,8.782-59.491,26.039-.969.924-1.015,2.464-.091,3.433.479.502,1.118.764,1.756.764.604,0,1.209-.228,1.677-.673,17.199-16.321,33.954-19.88,57.141-24.807l1.928-.411h.012Z"/>
  <path d="M424.81,374.423c-.217-.696-.741-1.266-1.426-1.54s-1.46-.217-2.087.148c-1.654.947-3.673,1.266-5.543.89-.81-.171-1.175-.388-1.357-.559-.342-.308-.559-1.015-.582-1.87-.023-.662.046-1.62.502-2.361.297-.479.798-.833,1.22-.844.855-.034,1.631-.525,2.03-1.289.411-.764.376-1.665-.057-2.407-2.11-3.513-6.193-5.737-10.39-5.646-4.596.103-8.064,3.673-9.467,7.174-.981,2.475-1.323,5.281-1.049,8.862.034.433.068.878.103,1.312.205,2.281.399,4.425-.411,6.045-.525,1.061-1.597,2.019-3.011,2.692-1.494.719-3.216,1.095-4.882,1.426-.719.148-1.346.604-1.688,1.255-.342.65-.365,1.426-.08,2.087,1.403,3.228,3.501,5.76,6.079,7.334,2.167,1.323,4.733,1.985,7.425,1.985,2.498,0,5.121-.57,7.653-1.711,4.494-2.03,8.132-5.52,11.189-8.622,1.779-1.813,3.479-3.616,4.699-5.897,1.528-2.851,1.916-5.874,1.095-8.509l.034.046ZM419.415,380.628c-.912,1.711-2.361,3.239-3.878,4.779-2.886,2.92-5.999,5.908-9.729,7.596-3.741,1.688-7.767,1.688-10.527,0-1.106-.684-1.996-1.585-2.68-2.532.947-.274,1.893-.616,2.817-1.061,2.407-1.163,4.22-2.863,5.247-4.904,1.426-2.851,1.152-5.942.901-8.657-.034-.422-.08-.833-.103-1.232-.217-2.817.023-4.939.719-6.684.776-1.95,2.692-4.072,5.053-4.118,1.494-.034,2.977.445,4.186,1.277-.468.422-.878.901-1.22,1.448-.89,1.414-1.312,3.171-1.243,5.098.08,2.213.821,4.026,2.133,5.258.935.867,2.144,1.448,3.707,1.756,1.779.365,3.638.319,5.406-.08-.16.662-.411,1.357-.764,2.019l-.023.034Z"/>
</svg>